<svg xmlns="http://www.w3.org/2000/svg" xml:space="preserve" style="fill-rule:evenodd;clip-rule:evenodd;stroke-linecap:round;stroke-linejoin:round;stroke-miterlimit:1.5" viewBox="0 0 192 192"><path d="M1228.868 810.135c2.385-.159 4.768-.398 7.072-.683 9.449 14.373 23.446 28.937 30.446 35.129 8.788 7.774 16.778 13.502 27.3 18.693 21.896 10.803 42.924 11.342 60.711 5.506 28.477-9.344 55.939-37.087 57.572-78.032a113 113 0 0 0 6.295-5.047c-.752 43.715-25.956 77.083-61.54 88.759-19.163 6.288-41.826 5.8-65.417-5.839-11.048-5.451-19.446-11.452-28.674-19.615-9.37-8.289-18.719-18.509-27.916-30.899-.367-.494-3.532-4.809-5.849-7.972" style="fill:#ef454a;stroke:#fff;stroke-width:1.82px" transform="translate(-643.408 -315.524)scale(.5738)"/><path d="M1242.404 808.51c2.373-.395 4.546-.807 6.405-1.188 15.214 20.637 25.913 29.873 36.375 37.261 11.908 8.409 20.517 12.252 32.183 14.792 11.995 2.612 23.416 1.884 33.897-1.555 23.102-7.58 40.724-27.816 47.052-51.283l2.003-7.981a132 132 0 0 0 6.744-4.308c-.289.345-.575.613-.856.77-4.26 32.155-19.944 47.602-31.154 56.844-15.086 12.438-37.417 17.17-60.395 12.857-14.364-2.696-44.917-17.069-72.254-56.209" style="fill:#ef454a;stroke:#fff;stroke-width:1.82px" transform="translate(-643.408 -315.524)scale(.5738)"/><path d="M1248.809 807.322c3.11-.638 5.342-1.186 6.161-1.411 11.216 14.786 22.574 25.923 33.679 33.765s19.117 11.46 29.997 13.829c10.879 2.37 21.239 1.726 30.745-1.393 22.063-7.239 38.61-27.114 43.776-49.76 1.912-.84 4.389-2.152 7.152-3.796l-2.003 7.981c-6.328 23.467-23.95 43.703-47.052 51.283-10.481 3.439-21.902 4.167-33.897 1.555-11.666-2.54-20.275-6.383-32.183-14.792-10.462-7.388-21.161-16.624-36.375-37.261" style="fill:#ef454a;stroke:#fff;stroke-width:1.82px" transform="translate(-643.408 -315.524)scale(.5738)"/><path d="M1418.264 785.701c2.095-1.814 4.03-3.654 5.685-5.459 3.039 43.304-24.586 86.549-65.352 99.926-20.488 6.723-44.726 6.285-69.948-6.159a133 133 0 0 1-6.673-3.526 120 120 0 0 1-12.171-7.896 144 144 0 0 1-6.165-4.815 186 186 0 0 1-4.987-4.267c-9.651-8.537-19.287-19.056-28.76-31.817a261 261 0 0 1-7.953-11.349c2.264.03 4.597-.049 6.928-.204 2.317 3.163 5.482 7.478 5.849 7.972 9.197 12.39 18.546 22.61 27.916 30.899 9.228 8.163 17.626 14.164 28.674 19.615 23.591 11.639 46.254 12.127 65.417 5.839 35.584-11.676 60.788-45.044 61.54-88.759" style="fill:#ef454a;stroke:#fff;stroke-width:1.82px" transform="translate(-643.408 -315.524)scale(.5738)"/><path d="M1236.321 809.204c2.254-.28 4.433-.604 6.465-.942 27.336 39.14 57.89 53.513 72.254 56.209 22.977 4.313 45.308-.419 60.394-12.857 11.21-9.242 26.895-24.689 31.154-56.843.282-.158.567-.426.856-.771 1.63-1.11 3.28-2.283 4.907-3.5-1.633 40.945-29.096 68.688-57.572 78.032-17.787 5.836-38.815 5.298-60.711-5.506-10.523-5.191-18.513-10.919-27.301-18.693-6.999-6.192-20.997-20.756-30.446-35.129" style="fill:#ef454a;stroke:#fff;stroke-width:1.82px" transform="translate(-643.627 -315.381)scale(.5738)"/><path d="M1374.057 777.953c6.531-2.029 12.797-5.168 18.08-8.885 5.284-3.717 12.3-6.764 21.344-25.161 9.043-18.397 9.872-40.675.177-59.493l11.507-34.367c35.499 37.758 30.784 95.298-1.216 130.195-8.281 9.03-23.565 18.938-30.782 22.11-11.125 4.891-24.661 7.758-38.469 7.982 4.963-7.386 10.206-15.868 15.699-25.698a204 204 0 0 0 3.66-6.683" style="fill:#ef454a;stroke:#fff;stroke-width:1.82px" transform="translate(-643.408 -315.524)scale(.5738)"/><path d="M1370.058 785.242c19.256-4.164 37.793-16.331 48.814-38.685 11.19-22.697 10.664-49.118-2.618-69.894l6.637-19.825c21.972 26.315 35.189 74.978-3.37 119.344-7.387 8.499-25.592 24.883-61.053 28.41 3.722-5.8 7.589-12.217 11.59-19.35" style="fill:#ef454a;stroke:#fff;stroke-width:1.82px" transform="translate(-643.408 -315.524)scale(.5738)"/><path d="M1366.446 791.553c65.623-12.195 80.31-83.48 52.099-121.734l2.217-6.62c34.898 43.208 17.185 123.737-58.326 135.061a388 388 0 0 0 4.01-6.707M1288.649 792.541a188 188 0 0 1-25.865 10.977 141 141 0 0 1-7.814 2.393c-2.575.707-19.105 4.61-33.03 4.428s-26.593-3.056-37.809-7.987c-5.166-22.645-.471-28.38 1.03-33.284 5.283 3.717 11.11 7.105 17.754 8.725 16.531 4.028 29.589 2.651 34.667 1.783 5.077-.869 10.333-2.202 15.755-4.033a160 160 0 0 0 5.45-1.954s12.585 10.057 29.862 18.952" style="fill:#ef454a;stroke:#fff;stroke-width:1.82px" transform="translate(-643.408 -315.524)scale(.5738)"/><path d="M1281.664 788.753c-44.467 21.652-75.607 17.129-98.81 7.24-.702-4.114-1.019-7.54-1.076-10.431-.066-3.315.419-5.816 1.333-9.427 21.635 11.651 47.479 15.485 81.355 1.665a210 210 0 0 0 17.198 10.953" style="fill:#ef454a;stroke:#fff;stroke-width:1.82px" transform="translate(-643.408 -315.524)scale(.5738)"/><path d="M1181.919 781.875c38.317 20.585 71.104 6.39 88.503-.013a214 214 0 0 0 5.583 3.545c-37.264 16.763-65.026 17.509-94.048 3.622a57 57 0 0 1-.179-3.467 33 33 0 0 1 .141-3.687" style="fill:#ef454a;stroke:#fff;stroke-width:1.82px" transform="translate(-643.408 -315.524)scale(.5738)"/><path d="m1188.72 747.88 2.926 6.835c-5.842 10.633-10.054 21.482-9.868 30.847.085 4.268.735 9.7 2.353 16.79 7.325 32.112 40.178 58.633 74.522 51.153a186 186 0 0 0 4.987 4.267c-1.024.45-4.165 1.771-6.722 2.192-53.008 8.725-100.66-53.769-71.983-105.661 2.048-3.706 3.299-5.682 3.785-6.423" style="fill:#ef454a;stroke:#fff;stroke-width:1.82px" transform="translate(-643.408 -315.524)scale(.5738)"/><path d="m1183.284 735.179-2.531-5.915c-1.076 1.567-2.833 4.09-4.418 6.195-49.37 65.595 16.345 167.013 98.604 137.844l7.037-2.82a120 120 0 0 1-6.436-3.915c-4.891 2.12-10.166 3.995-13.509 4.633-67.943 12.95-118.859-64.941-87.447-123.321 3.393-6.306 6.792-10.552 8.7-12.701" style="fill:#ef454a;stroke:#fff;stroke-width:1.82px" transform="translate(-643.408 -315.524)scale(.5738)"/><path d="M1269.805 862.587a144 144 0 0 1-6.165-4.815c-1.024.45-4.165 1.771-6.722 2.192-53.008 8.725-100.107-54.769-71.983-105.661 2.048-3.706 3.299-5.682 3.785-6.423l-2.87-6.706c-1.71 2.251-4.103 5.947-7.048 11.879-28.103 56.605 22.029 120.215 76.461 112.772 6.618-.905 11.313-2.122 14.542-3.238" style="fill:#ef454a;stroke:#fff;stroke-width:1.82px" transform="translate(-643.408 -315.524)scale(.5738)"/><path d="M1275.54 866.568a123 123 0 0 1-5.735-3.981c-3.229 1.116-7.924 2.333-14.542 3.238-54.432 7.443-104.564-56.167-76.461-112.772 2.945-5.932 5.338-9.628 7.048-11.879l-2.566-5.995c-1.908 2.149-5.307 6.395-8.7 12.701-31.412 58.38 19.504 136.271 87.447 123.321 3.343-.638 8.618-2.513 13.509-4.633" style="fill:#ef454a;stroke:#fff;stroke-width:1.82px" transform="translate(-643.408 -315.524)scale(.5738)"/><path d="M1281.976 870.483a133 133 0 0 0 6.673 3.526c-92.059 45.42-172.76-68.228-117.113-142.162a299 299 0 0 1 6.584-8.734l2.633 6.151c-1.076 1.567-2.833 4.09-4.418 6.195-49.37 65.595 16.345 167.013 98.604 137.844zM1231.801 708.564a151 151 0 0 1 4.359-4.008c10.774 19.007 27.383 36.93 47.717 50.865a169 169 0 0 0 4.772 3.153c5.612 3.573 12.06 8.26 29.862 15.015q2.703 1.025 5.451 1.954c5.421 1.831 10.677 3.164 15.754 4.033-7.324 12.559-6.155 11.518-17.387 26.335l-.038.05c-3.396-1.044-6.593-2.043-7.777-2.443a188 188 0 0 1-25.865-10.977c-17.277-8.895-29.862-18.952-29.862-18.952-18.03-13.837-33.172-30.341-44.282-47.809.583-.57 2.072-2.089 4.06-4.105 26.693 40.895 68.036 67.316 106.935 79.21a275 275 0 0 0 3.637-5.227 303 303 0 0 0 3.17-4.768 328 328 0 0 0 3.489-5.48c-60.583-17.27-89.495-51.027-103.995-76.846" style="fill:#ef454a;stroke:#fff;stroke-width:1.82px" transform="translate(-643.408 -315.524)scale(.5738)"/><path d="M1227.313 712.912a359 359 0 0 1 4.488-4.348c14.5 25.819 43.412 59.576 103.995 76.846a328 328 0 0 1-3.489 5.48c-55.804-19.266-82.618-42.041-104.994-77.978" style="fill:#ef454a;stroke:#fff;stroke-width:1.82px" transform="translate(-643.408 -315.524)scale(.5738)"/><path d="M1218.565 721.675c1.224-1.242 2.638-2.672 4.147-4.187 24.281 37.391 57.448 62.39 106.425 78.17a275 275 0 0 1-3.637 5.227c-38.899-11.894-80.242-38.315-106.935-79.21" style="fill:#ef454a;stroke:#fff;stroke-width:1.82px" transform="translate(-643.408 -315.524)scale(.5738)"/><path d="M1222.712 717.488a649 649 0 0 1 4.601-4.576c22.376 35.937 49.19 58.712 104.994 77.978a303 303 0 0 1-3.17 4.768c-48.977-15.78-82.144-40.779-106.425-78.17M1378.164 653.6c2.32.69 3.978 1.325 4.865 1.691.953 38.041-14.552 61.552-20.236 70.489-5.683 8.936-12.422 17.62-20.063 25.823a197 197 0 0 1-24.219 21.986 229 229 0 0 1-6.056-2.394c19.805-16.176 34.437-30.474 45.487-47.604 11.762-18.231 19.302-39.669 20.222-69.991M1296.668 763.579a125 125 0 0 1-5.376-3.302c19.639-16.672 41.028-40.164 49.847-55.721 3.556-6.274 6.159-11.191 8.331-17.501 1.136-3.301 2.155-6.983 3.131-11.44 1.88-8.585 2.282-17.051.879-25.094a82 82 0 0 1 7.449.107c1.668 25.949-8.062 46.852-17.312 62.132-7.965 13.157-21.07 28.488-46.949 50.819" style="fill:#ef454a;stroke:#fff;stroke-width:1.82px" transform="translate(-643.408 -315.524)scale(.5738)"/><path d="M1372.6 652.193c2.133.451 3.999.942 5.564 1.407-.92 30.322-8.46 51.76-20.222 69.991-11.05 17.13-25.682 31.428-45.487 47.604-2-.825-3.824-1.616-5.499-2.376 19.585-18.307 33.974-26.084 52.292-58.812 9.206-16.447 13.491-36.195 13.352-57.814" style="fill:#ef454a;stroke:#fff;stroke-width:1.82px" transform="translate(-643.408 -315.524)scale(.5738)"/><path d="M1360.929 650.628c2.186.131 4.249.343 6.172.608-.015 27.239-7.044 48.642-19.662 67.141-15.631 22.915-31.948 35.304-45.671 47.958-1.923-.975-3.6-1.892-5.1-2.756 25.879-22.331 38.984-37.662 46.949-50.819 9.25-15.28 18.98-36.183 17.312-62.132" style="fill:#ef454a;stroke:#fff;stroke-width:1.82px" transform="translate(-643.408 -315.524)scale(.5738)"/><path d="M1367.101 651.236c1.987.273 3.826.603 5.499.957.139 21.619-4.146 41.367-13.352 57.814-18.318 32.728-32.707 40.505-52.292 58.812a133 133 0 0 1-5.188-2.484c13.723-12.654 30.04-25.043 45.671-47.958 12.618-18.499 19.647-39.902 19.662-67.141M1281.646 665.474a319 319 0 0 1 7.003 3.418c-17.705 8.89-35.605 20.87-52.489 35.664-6.885 6.032-19.645 19.26-21.655 21.224-.82.801-1.539 1.697-2.302 2.556l-2.509-6.234c25.594-26.954 52.17-45.694 71.952-56.628M1202.213 703.511l-2.175-5.404s.293-.301.441-.449c9.755-9.749 14.879-14.451 24.219-22.043a284 284 0 0 1 28.583-20.455c2.515.681 4.856 1.318 7.216 2.023-18.622 10.518-42.116 30.7-58.284 46.328" style="fill:#ef454a;stroke:#fff;stroke-width:1.82px" transform="translate(-643.408 -315.524)scale(.5738)"/><path d="M1274.829 662.396c2.081.892 4.334 1.906 6.817 3.078-19.782 10.934-46.358 29.674-71.952 56.628l-2.375-5.901c25.808-27.821 55.997-47.872 67.51-53.805M1260.497 657.183c2.336.697 4.691 1.459 7.253 2.395-22.994 13.693-44.144 31.433-63.075 50.052l-2.462-6.119c16.168-15.628 39.662-35.81 58.284-46.328" style="fill:#ef454a;stroke:#fff;stroke-width:1.82px" transform="translate(-643.408 -315.524)scale(.5738)"/><path d="M1267.75 659.578c2.173.793 4.494 1.711 7.079 2.818-11.513 5.933-41.702 25.984-67.51 53.805l-2.644-6.571c18.931-18.619 40.081-36.359 63.075-50.052M1296.261 639.977a334 334 0 0 0-7.612-3.351c17.892-7.63 35.439-12.51 51.666-14.554 16.227-2.043 24.827-1.102 34.819.365 8.742 1.283 17.713 4.411 25.13 8.434l-1.703 5.259c-38.455-18.02-79.124-5.255-102.3 3.847M1392.962 653.417l-2.03 6.27a79 79 0 0 0-3.98-2.433 42 42 0 0 0-3.266-1.68c-1.122-.517-12.943-5.589-30.206-5.053-9.262.287-19.174 1.855-29.463 4.639-2.211-1.381-4.324-2.701-6.483-4.006 41.145-13.942 66.436-2.388 75.428 2.263" style="fill:#ef454a;stroke:#fff;stroke-width:1.82px" transform="translate(-643.408 -315.524)scale(.5738)"/><path d="m1398.561 636.13-1.736 5.358c-31.186-13.492-59.932-10.449-93.177 2.005a237 237 0 0 0-7.387-3.516c23.176-9.102 63.845-21.867 102.3-3.847" style="fill:#ef454a;stroke:#fff;stroke-width:1.82px" transform="translate(-643.408 -315.524)scale(.5738)"/><path d="m1394.775 647.819-1.813 5.598c-8.992-4.651-34.283-16.205-75.428-2.263-2.03-1.227-4.1-2.442-6.329-3.683 19.191-7.975 52.229-15.602 83.57.348" style="fill:#ef454a;stroke:#fff;stroke-width:1.82px" transform="translate(-643.408 -315.524)scale(.5738)"/><path d="m1396.825 641.488-2.05 6.331c-31.341-15.95-64.379-8.323-83.57-.348a185 185 0 0 0-7.557-3.978c33.245-12.454 61.991-15.497 93.177-2.005M1374.472 703.807a205 205 0 0 0 2.347-6.149s15.135 14.614 22.359 25.454c2.001 3.002 12.088 16.662 14.303 20.795a107 107 0 0 1-3.243 6.117c-6.89-12.959-24.165-35.99-35.766-46.217M1397.736 765.193c-2.049 1.571-3.912 2.689-5.599 3.875-1.5-4.904-4.096-9.471-6.484-14.353-5.203-10.633-22.218-28.231-22.86-28.935a435 435 0 0 0 3.076-4.884c9.973 10.731 21.479 22.153 31.867 44.297" style="fill:#ef454a;stroke:#fff;stroke-width:1.82px" transform="translate(-643.408 -315.524)scale(.5738)"/><path d="M1372.013 709.552c.795-1.73 1.605-3.619 2.459-5.745 11.601 10.227 28.876 33.258 35.766 46.217a74 74 0 0 1-3.504 5.541c-5.823-12.168-20.244-32.594-34.721-46.013M1365.869 720.896a120 120 0 0 0 3.222-5.51c12.914 12.254 27.609 32.232 33.52 45.346a38 38 0 0 1-4.875 4.461c-10.388-22.144-21.894-33.566-31.867-44.297" style="fill:#ef454a;stroke:#fff;stroke-width:1.82px" transform="translate(-643.408 -315.524)scale(.5738)"/><path d="M1369.091 715.386a94 94 0 0 0 2.922-5.834c14.477 13.419 28.898 33.845 34.721 46.013-1.437 2.051-2.81 3.742-4.123 5.167-5.911-13.114-20.606-33.092-33.52-45.346M1233.41 627.325c1.111-1.883 2.305-3.667 3.573-5.253 16.227 2.044 33.775 6.924 51.666 14.554 17.892 7.63 25.703 12.495 35.368 18.534a284 284 0 0 1 28.584 20.455 123 123 0 0 1-1.426 5.86c-46.498-38.131-88.101-48.991-117.765-54.15M1344.181 699.042a221 221 0 0 1-3.042 5.514c-16.885-14.794-34.784-26.774-52.49-35.664-17.705-8.889-25.079-10.947-35.368-13.732-10.288-2.784-20.201-4.352-29.463-4.639 0 0 .702-2.546 2.003-6.265 34.568 4.027 76.772 18.519 118.36 54.786" style="fill:#ef454a;stroke:#fff;stroke-width:1.82px" transform="translate(-643.408 -315.524)scale(.5738)"/><path d="M1225.821 644.256a128 128 0 0 1 1.978-5.274c27.144 1.895 75.7 17.621 119.099 54.551a98 98 0 0 1-2.717 5.509c-41.588-36.267-83.792-50.759-118.36-54.786" style="fill:#ef454a;stroke:#fff;stroke-width:1.82px" transform="translate(-643.408 -315.524)scale(.5738)"/><path d="M1230.476 632.864a74 74 0 0 1 2.934-5.539c29.664 5.159 71.267 16.019 117.765 54.15a86 86 0 0 1-1.869 6.05c-55.43-43.943-89.032-49.068-118.83-54.661" style="fill:#ef454a;stroke:#fff;stroke-width:1.82px" transform="translate(-643.408 -315.524)scale(.5738)"/><path d="M1227.799 638.982a103 103 0 0 1 2.677-6.118c29.798 5.593 63.4 10.718 118.83 54.661a75 75 0 0 1-2.408 6.008c-43.399-36.93-91.955-52.656-119.099-54.551M1194.301 648.518a80 80 0 0 0-.689 7.056 42 42 0 0 0-3.265 1.68 70 70 0 0 0-3.981 2.433c-7.283 4.838-17.668 14.91-22.726 24.727-9.695 18.818-8.866 41.094.177 59.491-.901 1.679-2.609 5.159-4.397 9.866.317-1.04.679-2.051 1.098-3.022-4.119-7.064-23.342-49.08 9.243-84.611 9.536-10.398 17.982-14.875 24.54-17.62" style="fill:#ef454a;stroke:#fff;stroke-width:1.82px" transform="translate(-643.408 -315.524)scale(.5738)"/><path d="M1154.283 772.449a81 81 0 0 0-.937 7.789c-31.997-34.897-36.711-92.435-1.213-130.191 0 0 8.485-10.269 24.902-19.176 7.416-4.023 15.861-6.856 25.13-8.434a89 89 0 0 0-2.708 6.337c-11.502 2.283-45.824 17.357-59.795 51.62-16.726 41.018 4.806 80.08 14.621 92.055" style="fill:#ef454a;stroke:#fff;stroke-width:1.82px" transform="translate(-643.408 -315.524)scale(.5738)"/><path d="M1154.434 771.58q-.078.432-.151.869c-9.815-11.975-31.347-51.037-14.621-92.055 13.971-34.263 48.293-49.337 59.795-51.62a93.5 93.5 0 0 0-3.949 13.119c.551-2.484.881-3.917 1.611-6.278-30.403 6.489-84.706 55.28-41.371 129.443a89 89 0 0 0-1.314 6.522" style="fill:#ef454a;stroke:#fff;stroke-width:1.82px" transform="translate(-643.408 -315.524)scale(.5738)"/><path d="M1195.508 641.893a88 88 0 0 0-1.207 6.625c-6.558 2.745-15.004 7.222-24.54 17.62-32.585 35.531-13.362 77.547-9.243 84.611a89 89 0 0 0-2.605 6.798c-2.173-4.533-23.609-38.633-4.538-78.421 6.362-13.273 23.282-31.735 42.133-37.233" style="fill:#ef454a;stroke:#fff;stroke-width:1.82px" transform="translate(-643.408 -315.524)scale(.5738)"/><path d="M1195.508 641.893c-18.851 5.498-35.771 23.96-42.133 37.233-19.071 39.788 2.365 73.888 4.538 78.421a89 89 0 0 0-2.165 7.511c-43.335-74.163 10.968-122.954 41.371-129.443-.73 2.361-1.06 3.794-1.611 6.278M1381.809 702.668a261 261 0 0 0-4.543-4.575c4.789-12.641 9.34-25.52 13.666-38.406l9.332-28.816c8.96-28.633 16.831-56.467 23.747-80.989l5.917 1.669c-6.646 23.384-16.465 57.256-23.931 81.115l-.018.056-9.332 28.816-.02.061c-2.904 8.65-9.713 27.267-14.818 41.069" style="fill:#ef454a;stroke:#fff;stroke-width:1.82px" transform="translate(-643.408 -315.524)scale(.5738)"/><path d="M1381.809 702.668a261 261 0 0 0-4.543-4.575c4.789-12.641 9.34-25.52 13.666-38.406l9.332-28.816c8.96-28.633 16.831-56.467 23.747-80.989l5.917 1.669c-6.646 23.384-16.465 57.256-23.931 81.115l-.018.056-9.332 28.816-.02.061c-2.904 8.65-9.713 27.267-14.818 41.069M1446.784 556.305l5.646 1.593c-7.817 27.716-16.845 59.614-27.265 92.149l-11.507 34.367c-4.588 13.069-9.412 26.042-14.48 38.698a85 85 0 0 0-3.862-5.308c4.622-12.707 10.388-28.87 12.66-35.34l11.48-34.286c8.827-27.566 19.835-65.495 27.328-91.873" style="fill:#ef454a;stroke:#fff;stroke-width:1.82px" transform="translate(-643.408 -315.524)scale(.5738)"/><path d="M1386.38 707.492a271 271 0 0 0-4.571-4.824c5.105-13.802 11.914-32.419 14.818-41.069l.02-.061 9.332-28.816.018-.056c7.466-23.859 17.285-57.731 23.931-81.115l5.388 1.52c-2.508 8.709-7.47 25.635-9.249 31.813-4.567 15.857-9.486 32.507-14.783 49.436l-.035.109-9.332 28.816-.039.118c-3.397 10.119-11.365 32.834-15.498 44.129M1441.515 554.819l5.269 1.486c-7.493 26.378-18.501 64.307-27.328 91.873l-11.48 34.286c-2.272 6.47-8.038 22.633-12.66 35.34a123 123 0 0 0-4.197-5.044c2.791-7.522 9.42-25.837 11.617-32.093l11.455-34.213c8.616-26.909 20.184-66.508 27.324-91.635" style="fill:#ef454a;stroke:#fff;stroke-width:1.82px" transform="translate(-643.408 -315.524)scale(.5738)"/><path d="M1386.38 707.492c4.133-11.295 12.101-34.01 15.498-44.129l.039-.118 9.332-28.816.035-.109c5.297-16.929 10.216-33.579 14.783-49.436 1.779-6.178 6.741-23.104 9.249-31.813l6.199 1.748c-7.14 25.127-18.708 64.726-27.324 91.635l-11.455 34.213c-2.197 6.256-8.826 24.571-11.617 32.093q-.632-.72-1.262-1.421a227 227 0 0 0-3.477-3.847M1210.161 779.27a98 98 0 0 1-7.246-1.477c-3.869-7.428-7.624-15.142-11.269-23.078l-13.526-31.602c-3.525-8.805-9.649-25.021-14.594-38.476 1.091-2.119 2.436-4.26 3.947-6.363 4.958 13.343 13.159 34.946 16.198 42.542l13.469 31.468c2.745 5.976 9.145 19.227 13.021 26.986" style="fill:#ef454a;stroke:#fff;stroke-width:1.82px" transform="translate(-643.408 -315.524)scale(.5738)"/><path d="M1216.637 780.109a95 95 0 0 1-6.476-.839c-3.876-7.759-10.276-21.01-13.021-26.986l-13.469-31.468c-3.039-7.596-11.24-29.199-16.198-42.542a74 74 0 0 1 3.955-5.007c5.826 15.468 14.913 39.308 17.362 45.43l13.413 31.338c2.344 5.101 10.31 21.682 14.434 30.074M1176.63 667.739a82 82 0 0 1 4.516-4.097c3.972 11.241 10.381 28.959 13.274 36.594l.045.114 12.165 30.229.052.125c6.279 14.639 16.424 35.912 23.821 49.662a85 85 0 0 1-6.645.146c-6.339-12.592-17.374-36.216-22.267-47.624l-.1-.241-12.165-30.229-.086-.22c-2.106-5.559-8.961-24.32-12.61-34.459" style="fill:#ef454a;stroke:#fff;stroke-width:1.82px" transform="translate(-643.408 -315.524)scale(.5738)"/><path d="M1181.146 663.642c1.805-1.518 3.548-2.839 5.14-3.901 4.204 12.27 9.667 27.585 13.752 38.366l12.165 30.229c7.863 18.332 16.304 35.681 25.379 51.24-1.608.275-4.015.601-7.079.79-7.397-13.75-17.542-35.023-23.821-49.662l-.052-.125-12.165-30.229-.045-.114c-2.893-7.635-9.302-25.353-13.274-36.594M1216.637 780.109c-4.124-8.392-12.09-24.973-14.434-30.074l-13.413-31.338c-2.449-6.122-11.536-29.962-17.362-45.43a87 87 0 0 1 5.202-5.528c3.649 10.139 10.504 28.9 12.61 34.459l.086.22 12.165 30.229.1.241c4.893 11.408 15.928 35.032 22.267 47.624a92 92 0 0 1-7.221-.403M1156.793 645.279c-4.001-12.93-9.859-32.38-12.938-42.876-3.372-11.491-9.255-32.045-13.255-46.122l5.315-1.499c3.686 12.95 10.154 35.493 13.255 46.062 2.363 8.052 8.554 28.713 12.146 40.513a89 89 0 0 0-4.523 3.922" style="fill:#ef454a;stroke:#fff;stroke-width:1.82px" transform="translate(-643.408 -315.524)scale(.5738)"/><path d="M1156.793 645.279c-3.092 2.871-4.66 4.768-4.66 4.768-4.994-15.594-9.668-31.042-14.043-45.953-4.752-16.199-9.151-31.764-13.222-46.196l5.732-1.617c4 14.077 9.883 34.631 13.255 46.122 3.079 10.496 8.937 29.946 12.938 42.876M1147.432 551.534l5.855-1.652c6.917 24.522 14.787 52.356 23.748 80.989a105 105 0 0 0-5.392 3.137c-6.996-22.898-17.806-60.037-24.211-82.474" style="fill:#ef454a;stroke:#fff;stroke-width:1.82px" transform="translate(-643.408 -315.524)scale(.5738)"/><path d="M1171.643 634.008a103 103 0 0 0-4.861 3.218c-6.656-21.99-18.835-63.76-24.672-84.191l5.322-1.501c6.405 22.437 17.215 59.576 24.211 82.474" style="fill:#ef454a;stroke:#fff;stroke-width:1.82px" transform="translate(-643.408 -315.524)scale(.5738)"/><path d="M1161.316 641.357c-3.592-11.8-9.783-32.461-12.146-40.513-3.101-10.569-9.569-33.112-13.255-46.062l6.195-1.747c5.837 20.431 18.016 62.201 24.672 84.191a99 99 0 0 0-5.466 4.131M1382.107 748.796c1.431 2.096 2.66 4.109 3.546 5.919l.061.125c-28.629 60.238-52.06 83.577-66.773 98.729l-.295-.064a83 83 0 0 1-6.1-1.556c23.395-24.388 41.13-44.587 69.561-103.153M1296.112 841.922q-.965.732-1.947 1.46a132 132 0 0 1-5.516-3.706c43.239-30.533 73.751-105.056 76.446-111.34q.254.318.6.54a285 285 0 0 1 4.062 4.487c-12.964 28.23-38.63 80.678-73.645 108.559" style="fill:#ef454a;stroke:#fff;stroke-width:1.82px" transform="translate(-643.408 -315.524)scale(.5738)"/><path d="M1300.178 846.887a89 89 0 0 1-5.972-3.479c35.99-27.466 62.353-81.305 75.551-110.045l.129.145a244 244 0 0 1 4.096 4.748c-.938 1.941-2.618 5.788-5.104 11.062-9.623 20.411-29.316 61.196-68.7 97.569" style="fill:#ef454a;stroke:#fff;stroke-width:1.82px" transform="translate(-643.408 -315.524)scale(.5738)"/><path d="M1378.435 743.77a108 108 0 0 1 3.672 5.026c-28.431 58.566-46.166 78.765-69.561 103.153a67 67 0 0 1-5.948-2.072c23.413-24.986 43.278-47.272 71.837-106.107" style="fill:#ef454a;stroke:#fff;stroke-width:1.82px" transform="translate(-643.408 -315.524)scale(.5738)"/><path d="M1373.982 738.256a176 176 0 0 1 4.453 5.514c-28.559 58.835-48.424 81.121-71.837 106.107a68 68 0 0 1-6.42-2.99c39.384-36.373 59.077-77.158 68.7-97.569 2.486-5.274 4.166-9.121 5.104-11.062" style="fill:#ef454a;stroke:#fff;stroke-width:1.82px" transform="translate(-643.408 -315.524)scale(.5738)"/><path d="M1317.519 941.812c-12.119-15.143-30.827-24.904-51.706-24.88s-39.507 9.737-51.626 24.88c-8.117 10.143-18.165 32.957-12.286 53.542-9.34 7.592-14.463 12.295-24.218 22.043-5.181-14.186-7.577-28.456-6.867-42.083.626-12.013 4.119-23.794 8.552-33.138 15.347-32.344 48.299-54.74 86.445-54.771 38.146.031 71.178 22.427 86.525 54.771-9.992-1.466-18.592-2.408-34.819-.364" style="fill:#ef454a;stroke:#fff;stroke-width:1.82px" transform="translate(-630.327 -498.991)scale(.5738)"/><path d="M1182.275 1012.848c-4.739-13.244-5.963-27.368-5.45-37.221.583-11.192 3.848-22.166 7.979-30.872 14.382-30.311 45.261-51.302 81.009-51.334 38.753.034 69.758 25.283 78.954 47.771-5.932-.622-12.197-.826-20.753-.079-12.443-19.917-34.543-30.193-58.208-30.197-22.776-.004-43.097 10.618-56.316 27.136-6.185 7.729-21.135 32.519-12.87 61.669-5 4.222-9.058 7.948-14.345 13.127" style="fill:#ef454a;stroke:#fff;stroke-width:1.82px" transform="translate(-630.327 -498.991)scale(.5738)"/><path d="M1186.924 1008.372c-8.915-26.028-2.088-49.401 3.412-60.992 13.401-28.242 42.169-47.804 75.477-47.835 28.75-.027 59.105 15.064 71.778 41.143a101 101 0 0 0-6.845.008c-12.938-24.484-43.315-35.929-64.947-35.904-24.706.03-46.751 11.516-61.09 29.435-9.833 12.286-22.096 39.457-13.029 69.778a232 232 0 0 0-4.756 4.367" style="fill:#ef454a;stroke:#fff;stroke-width:1.82px" transform="translate(-630.327 -498.991)scale(.5738)"/></svg>
