<?xml version="1.0" encoding="UTF-8" standalone="no"?>
<!DOCTYPE svg PUBLIC "-//W3C//DTD SVG 1.1//EN" "http://www.w3.org/Graphics/SVG/1.1/DTD/svg11.dtd">
<svg width="100%" height="100%" viewBox="0 0 192 192" version="1.1" xmlns="http://www.w3.org/2000/svg" xmlns:xlink="http://www.w3.org/1999/xlink" xml:space="preserve" xmlns:serif="http://www.serif.com/" style="fill-rule:evenodd;clip-rule:evenodd;stroke-linecap:round;stroke-linejoin:round;stroke-miterlimit:1.5;">
    <g transform="matrix(2.684694,0,0,2.684694,-2519.629567,-2010.83583)">
        <circle cx="974.275" cy="784.758" r="35.758"/>
        <g transform="matrix(3.6,0,0,3.6,-2533.114342,-2040.371513)">
            <g id="mail" transform="matrix(0.496643,0,0,0.496643,665.363067,553.819478)">
                <g transform="matrix(0.892857,0,0,0.947368,66.642857,23.052632)">
                    <path d="M636,458.829L636,474.171C636,475.18 635.13,476 634.059,476L609.941,476C608.87,476 608,475.18 608,474.171L608,458.829C608,457.82 608.87,457 609.941,457L634.059,457C635.13,457 636,457.82 636,458.829Z" style="stroke:white;stroke-width:1.13px;"/>
                </g>
                <g transform="matrix(0.958804,0,0,0.954545,25.659368,26.136364)">
                    <path d="M608.926,454.239L622,465L635,454" style="fill:none;stroke:white;stroke-width:1.09px;"/>
                </g>
            </g>
        </g>
    </g>
</svg>
