<?xml version="1.0" encoding="UTF-8" standalone="no"?>
<!DOCTYPE svg PUBLIC "-//W3C//DTD SVG 1.1//EN" "http://www.w3.org/Graphics/SVG/1.1/DTD/svg11.dtd">
<svg width="100%" height="100%" viewBox="0 0 400 100" version="1.1" xmlns="http://www.w3.org/2000/svg" xmlns:xlink="http://www.w3.org/1999/xlink" xml:space="preserve" xmlns:serif="http://www.serif.com/" style="fill-rule:evenodd;clip-rule:evenodd;stroke-linejoin:round;stroke-miterlimit:2;">
    <g transform="matrix(1,0,0,1,0,-25)">
        <g transform="matrix(1.154901,0,0,1.154901,-206.149951,-140.901543)">
            <path d="M178.5,174.178L178.5,171.778C181.7,171.678 184.45,170.878 186.75,169.378C189.05,167.878 191.05,165.978 192.75,163.678C194.45,161.378 195.875,158.828 197.025,156.028C198.175,153.228 199.2,149.528 200.1,146.928L202.2,146.928L202.2,169.678L222.75,169.678L222.75,174.178L202.2,174.178L202.2,209.128C202.2,210.428 202.275,211.703 202.425,212.953C202.575,214.203 202.875,215.328 203.325,216.328C203.775,217.328 204.425,218.128 205.275,218.728C206.125,219.328 207.3,219.628 208.8,219.628C211.8,219.628 214.3,218.978 216.3,217.678C218.3,216.378 220.3,214.728 222.3,212.728L223.65,214.228C221.95,215.728 222.3,217.253 220.7,218.803C219.1,220.353 218.425,221.753 216.675,223.003C214.925,224.253 213.025,225.253 210.975,226.003C208.925,226.753 206.7,227.128 204.3,227.128C200.1,227.128 195.554,224.648 193.75,222.303C190.25,217.753 190.5,217.728 190.5,214.228L190.5,174.178L178.5,174.178Z"/>
        </g>
        <g transform="matrix(1.154901,0,0,1.154901,-204.99505,-140.901543)">
            <path d="M242.1,193.228C242.1,198.428 242.775,202.728 244.125,206.128C245.475,209.528 247.175,212.228 249.225,214.228C251.275,216.228 253.475,217.628 255.825,218.428C258.175,219.228 260.35,219.628 262.35,219.628C266.55,219.628 270.35,218.953 273.75,217.603C277.15,216.253 280.3,214.128 283.2,211.228L285.75,213.628C281.65,218.028 277.45,221.378 273.15,223.678C268.85,225.978 263.7,227.128 257.7,227.128C253.4,227.128 249.55,226.278 246.15,224.578C242.75,222.878 239.85,220.628 237.45,217.828C235.05,215.028 233.225,211.828 231.975,208.228C230.725,204.628 230.1,200.928 230.1,197.128C230.1,193.328 230.725,189.628 231.975,186.028C233.225,182.428 235.05,179.228 237.45,176.428C239.85,173.628 242.75,171.378 246.15,169.678C249.55,167.978 253.4,167.128 257.7,167.128C265.6,167.128 271.95,169.278 276.75,173.578C281.55,177.878 284.5,184.428 285.6,193.228L242.1,193.228ZM271.35,188.728C271.05,186.028 270.65,183.603 270.15,181.453C269.65,179.303 268.85,177.503 267.75,176.053C266.65,174.603 265.2,173.503 263.4,172.753C261.6,172.003 259.3,171.628 256.5,171.628C254.4,171.628 252.475,172.153 250.725,173.203C248.975,174.253 247.475,175.603 246.225,177.253C244.975,178.903 244.025,180.753 243.375,182.803C242.725,184.853 242.4,186.828 242.4,188.728L271.35,188.728Z"/>
        </g>
        <g transform="matrix(1.154901,0,0,1.154901,-203.840149,-140.901543)">
            <path d="M376.2,167.128C381,167.128 385.375,167.853 389.325,169.303C393.275,170.753 396.675,172.778 399.525,175.378C402.375,177.978 404.575,181.128 406.125,184.828C407.675,188.528 408.45,192.628 408.45,197.128C408.45,201.628 407.675,205.728 406.125,209.428C404.575,213.128 402.375,216.278 399.525,218.878C396.675,221.478 393.275,223.503 389.325,224.953C385.375,226.403 381,227.128 376.2,227.128C371.4,227.128 367.025,226.403 363.075,224.953C359.125,223.503 355.725,221.478 352.875,218.878C350.025,216.278 347.825,213.128 346.275,209.428C344.725,205.728 343.95,201.628 343.95,197.128C343.95,192.628 344.725,188.528 346.275,184.828C347.825,181.128 350.025,177.978 352.875,175.378C355.725,172.778 359.125,170.753 363.075,169.303C367.025,167.853 371.4,167.128 376.2,167.128ZM373.5,171.628C370.7,171.628 368.275,172.328 366.225,173.728C364.175,175.128 362.475,176.953 361.125,179.203C359.775,181.453 358.775,184.003 358.125,186.853C357.475,189.703 357.15,192.528 357.15,195.328C357.15,198.528 357.575,201.728 358.425,204.928C359.275,208.128 360.6,211.053 362.4,213.703C364.2,216.353 366.45,218.503 369.15,220.153C371.85,221.803 375.1,222.628 378.9,222.628C381.7,222.628 384.125,221.928 386.175,220.528C388.225,219.128 389.925,217.303 391.275,215.053C392.625,212.803 393.625,210.278 394.275,207.478C394.925,204.678 395.25,201.828 395.25,198.928C395.25,195.828 394.8,192.653 393.9,189.403C393,186.153 391.65,183.203 389.85,180.553C388.05,177.903 385.8,175.753 383.1,174.103C380.4,172.453 377.2,171.628 373.5,171.628Z"/>
        </g>
        <g transform="matrix(1.154901,0,0,1.154901,-202.685248,-140.901543)">
            <path d="M478.2,193.228C478.2,198.428 478.875,202.728 480.225,206.128C481.575,209.528 483.275,212.228 485.325,214.228C487.375,216.228 489.575,217.628 491.925,218.428C494.275,219.228 496.45,219.628 498.45,219.628C502.65,219.628 506.45,218.953 509.85,217.603C513.25,216.253 516.4,214.128 519.3,211.228L521.85,213.628C517.75,218.028 513.55,221.378 509.25,223.678C504.95,225.978 499.8,227.128 493.8,227.128C489.5,227.128 485.65,226.278 482.25,224.578C478.85,222.878 475.95,220.628 473.55,217.828C471.15,215.028 469.325,211.828 468.075,208.228C466.825,204.628 466.2,200.928 466.2,197.128C466.2,193.328 466.825,189.628 468.075,186.028C469.325,182.428 471.15,179.228 473.55,176.428C475.95,173.628 478.85,171.378 482.25,169.678C485.65,167.978 489.5,167.128 493.8,167.128C501.7,167.128 508.05,169.278 512.85,173.578C517.65,177.878 520.6,184.428 521.7,193.228L478.2,193.228ZM507.45,188.728C507.15,186.028 506.75,183.603 506.25,181.453C505.75,179.303 504.95,177.503 503.85,176.053C502.75,174.603 501.3,173.503 499.5,172.753C497.7,172.003 495.4,171.628 492.6,171.628C490.5,171.628 488.575,172.153 486.825,173.203C485.075,174.253 483.575,175.603 482.325,177.253C481.075,178.903 480.125,180.753 479.475,182.803C478.825,184.853 478.5,186.828 478.5,188.728L507.45,188.728Z"/>
        </g>
        <g transform="matrix(1.144192,0,0,1.144192,-200.709242,-138.558773)">
            <path d="M292.35,174.178L292.35,171.778C295.55,171.678 298.3,170.878 300.6,169.378C302.9,167.878 304.9,165.978 306.6,163.678C308.3,161.378 309.725,158.828 310.875,156.028C312.025,153.228 313.05,148.686 313.95,146.086L316.05,146.086L316.05,169.678L336.6,169.678L336.6,174.178L316.05,174.178L316.05,209.128C316.05,210.428 316.125,211.703 316.275,212.953C316.425,214.203 316.725,215.75 317.175,216.75C317.625,217.75 318.697,218.128 319.547,218.728C320.397,219.328 321.572,219.628 323.072,219.628C326.072,219.628 328.15,218.978 330.15,217.678C332.15,216.378 334.15,214.728 336.15,212.728L337.5,214.228C335.8,215.728 335.081,217.253 333.481,218.803C331.881,220.353 331.558,221.288 329.808,222.538C328.058,223.788 326.623,225.253 324.573,226.003C322.523,226.753 320.703,227.443 317.855,227.128C313.655,226.663 311.779,225.853 309.348,223.768C307.103,221.842 304.815,219.589 304.35,214.228L304.35,174.178L292.35,174.178Z"/>
        </g>
        <g transform="matrix(1.144192,0,0,1.144192,-59.03905,-138.558773)">
            <path d="M292.35,174.178L292.35,171.778C295.55,171.678 298.3,170.878 300.6,169.378C302.9,167.878 304.9,165.978 306.6,163.678C308.3,161.378 309.725,158.828 310.875,156.028C312.025,153.228 313.05,148.686 313.95,146.086L316.05,146.086L316.05,169.678L336.6,169.678L336.6,174.178L316.05,174.178L316.05,209.128C316.05,210.428 316.125,211.703 316.275,212.953C316.425,214.203 316.725,215.75 317.175,216.75C317.625,217.75 318.697,218.128 319.547,218.728C320.397,219.328 321.572,219.628 323.072,219.628C326.072,219.628 328.15,218.978 330.15,217.678C332.15,216.378 334.15,214.728 336.15,212.728L337.5,214.228C335.8,215.728 335.081,217.253 333.481,218.803C331.881,220.353 331.558,221.288 329.808,222.538C328.058,223.788 326.623,225.253 324.573,226.003C322.523,226.753 320.703,227.443 317.855,227.128C313.655,226.663 311.779,225.853 309.348,223.768C307.103,221.842 304.815,219.589 304.35,214.228L304.35,174.178L292.35,174.178Z"/>
        </g>
    </g>
</svg>
