<?xml version="1.0" encoding="UTF-8" standalone="no"?>
<!DOCTYPE svg PUBLIC "-//W3C//DTD SVG 1.1//EN" "http://www.w3.org/Graphics/SVG/1.1/DTD/svg11.dtd">
<svg width="100%" height="100%" viewBox="0 0 400 160" version="1.1" xmlns="http://www.w3.org/2000/svg" xmlns:xlink="http://www.w3.org/1999/xlink" xml:space="preserve" xmlns:serif="http://www.serif.com/" style="fill-rule:evenodd;clip-rule:evenodd;stroke-linejoin:round;stroke-miterlimit:2;">
    <g id="_Image1_" serif:id="_Image1">
        <g transform="matrix(3.156964,0,0,3.156964,-70.321445,-214.898777)">
            <path d="M26.322,109.355L28.633,109.202L28.633,114.433C28.633,114.919 28.547,115.365 28.375,115.771C28.202,116.176 27.974,116.554 27.69,116.904C27.407,117.253 27.082,117.58 26.717,117.884C26.352,118.188 25.982,118.477 25.607,118.751L25.425,118.538C25.83,118.183 26.165,117.846 26.428,117.527C26.692,117.208 26.9,116.878 27.052,116.539C27.204,116.199 27.308,115.827 27.363,115.421C27.419,115.016 27.447,114.544 27.447,114.007L27.447,111.027C27.447,110.54 27.366,110.176 27.204,109.932C27.042,109.689 26.748,109.567 26.322,109.567L26.322,109.355ZM27.888,104.702C28.111,104.702 28.301,104.786 28.458,104.953C28.615,105.12 28.694,105.315 28.694,105.538C28.694,105.761 28.615,105.956 28.458,106.124C28.301,106.291 28.111,106.374 27.888,106.374C27.665,106.374 27.475,106.291 27.318,106.124C27.161,105.956 27.082,105.761 27.082,105.538C27.082,105.315 27.161,105.12 27.318,104.953C27.475,104.786 27.665,104.702 27.888,104.702Z" style="fill-rule:nonzero;"/>
            <path d="M30.868,110.51C30.949,110.196 31.063,109.945 31.21,109.757C31.357,109.57 31.527,109.428 31.72,109.332C31.912,109.235 32.13,109.175 32.373,109.149C32.617,109.124 32.875,109.111 33.149,109.111C33.412,109.111 33.673,109.139 33.932,109.195C34.19,109.251 34.423,109.344 34.631,109.476C34.839,109.608 35.006,109.783 35.133,110.001C35.26,110.219 35.323,110.485 35.323,110.799L35.323,113.612C35.323,113.804 35.374,113.974 35.475,114.121C35.576,114.268 35.734,114.342 35.946,114.342C36.149,114.342 36.329,114.283 36.486,114.167C36.643,114.05 36.793,113.936 36.935,113.825L37.087,113.992C36.985,114.093 36.866,114.212 36.729,114.349C36.593,114.486 36.448,114.618 36.296,114.745C36.144,114.871 35.989,114.978 35.832,115.064C35.675,115.15 35.521,115.193 35.369,115.193C35.267,115.193 35.161,115.16 35.049,115.094C34.938,115.028 34.829,114.95 34.722,114.859C34.616,114.767 34.517,114.671 34.426,114.57C34.335,114.468 34.254,114.382 34.183,114.311C33.858,114.534 33.493,114.737 33.088,114.919C32.682,115.102 32.287,115.193 31.902,115.193C31.689,115.193 31.484,115.158 31.286,115.087C31.089,115.016 30.914,114.914 30.762,114.783C30.61,114.651 30.488,114.494 30.397,114.311C30.306,114.129 30.26,113.921 30.26,113.688C30.26,113.272 30.376,112.94 30.61,112.692C30.843,112.444 31.144,112.254 31.514,112.122C31.884,111.99 32.305,111.901 32.776,111.856C33.248,111.81 33.721,111.782 34.198,111.772L34.198,110.616C34.198,110.241 34.081,109.953 33.848,109.75C33.615,109.547 33.321,109.446 32.966,109.446C32.703,109.446 32.495,109.578 32.343,109.841C32.191,110.105 32.115,110.404 32.115,110.738L30.868,110.51ZM34.167,112.365C33.833,112.274 33.493,112.228 33.149,112.228C32.956,112.228 32.764,112.251 32.571,112.297C32.378,112.342 32.206,112.416 32.054,112.517C31.902,112.618 31.778,112.748 31.682,112.905C31.585,113.062 31.537,113.252 31.537,113.475C31.537,113.82 31.656,114.065 31.894,114.212C32.133,114.359 32.399,114.433 32.693,114.433C33.017,114.433 33.313,114.367 33.582,114.235C33.851,114.103 34.046,113.992 34.167,113.901L34.167,112.365Z" style="fill-rule:nonzero;"/>
            <path d="M39.398,113.597C39.509,113.901 39.74,114.167 40.09,114.395C40.439,114.623 40.837,114.737 41.283,114.737C41.912,114.737 42.378,114.499 42.682,114.022C42.986,113.546 43.138,112.943 43.138,112.213C43.138,111.909 43.1,111.605 43.024,111.301C42.948,110.997 42.834,110.723 42.682,110.48C42.53,110.236 42.337,110.039 42.104,109.887C41.871,109.735 41.597,109.659 41.283,109.659C40.827,109.659 40.427,109.745 40.082,109.917C39.737,110.089 39.509,110.312 39.398,110.586L39.398,113.597ZM39.398,117.246C39.398,117.489 39.413,117.687 39.443,117.839C39.474,117.991 39.552,118.112 39.679,118.204C39.806,118.295 39.993,118.361 40.242,118.401C40.49,118.442 40.832,118.467 41.268,118.477L41.268,118.66C40.893,118.639 40.518,118.624 40.143,118.614C39.768,118.604 39.393,118.599 39.018,118.599C38.673,118.599 38.331,118.604 37.991,118.614C37.652,118.624 37.31,118.639 36.965,118.66L36.965,118.477C37.178,118.457 37.36,118.429 37.512,118.394C37.664,118.358 37.794,118.302 37.9,118.226C38.007,118.15 38.085,118.044 38.136,117.907C38.187,117.77 38.212,117.585 38.212,117.352L38.212,110.723C38.212,110.297 38.126,110.013 37.953,109.871C37.781,109.73 37.487,109.638 37.072,109.598L37.072,109.431L39.398,109.202L39.398,109.841C39.763,109.578 40.105,109.39 40.424,109.278C40.743,109.167 41.126,109.111 41.572,109.111C42.018,109.111 42.421,109.187 42.781,109.339C43.141,109.491 43.445,109.704 43.693,109.978C43.941,110.252 44.134,110.576 44.271,110.951C44.408,111.326 44.476,111.737 44.476,112.183C44.476,112.649 44.387,113.067 44.21,113.437C44.033,113.807 43.794,114.121 43.495,114.38C43.196,114.638 42.847,114.838 42.446,114.98C42.046,115.122 41.628,115.193 41.192,115.193C40.878,115.193 40.569,115.155 40.264,115.079C39.96,115.003 39.671,114.879 39.398,114.706L39.398,117.246Z" style="fill-rule:nonzero;"/>
            <path d="M46.073,110.51C46.154,110.196 46.268,109.945 46.415,109.757C46.562,109.57 46.731,109.428 46.924,109.332C47.117,109.235 47.335,109.175 47.578,109.149C47.821,109.124 48.08,109.111 48.353,109.111C48.617,109.111 48.878,109.139 49.136,109.195C49.395,109.251 49.628,109.344 49.836,109.476C50.043,109.608 50.211,109.783 50.337,110.001C50.464,110.219 50.527,110.485 50.527,110.799L50.527,113.612C50.527,113.804 50.578,113.974 50.68,114.121C50.781,114.268 50.938,114.342 51.151,114.342C51.354,114.342 51.534,114.283 51.691,114.167C51.848,114.05 51.997,113.936 52.139,113.825L52.291,113.992C52.19,114.093 52.071,114.212 51.934,114.349C51.797,114.486 51.653,114.618 51.501,114.745C51.349,114.871 51.194,114.978 51.037,115.064C50.88,115.15 50.725,115.193 50.573,115.193C50.472,115.193 50.365,115.16 50.254,115.094C50.142,115.028 50.033,114.95 49.927,114.859C49.82,114.767 49.722,114.671 49.63,114.57C49.539,114.468 49.458,114.382 49.387,114.311C49.063,114.534 48.698,114.737 48.292,114.919C47.887,115.102 47.492,115.193 47.106,115.193C46.894,115.193 46.688,115.158 46.491,115.087C46.293,115.016 46.118,114.914 45.966,114.783C45.814,114.651 45.692,114.494 45.601,114.311C45.51,114.129 45.464,113.921 45.464,113.688C45.464,113.272 45.581,112.94 45.814,112.692C46.047,112.444 46.349,112.254 46.719,112.122C47.089,111.99 47.509,111.901 47.981,111.856C48.452,111.81 48.926,111.782 49.402,111.772L49.402,110.616C49.402,110.241 49.286,109.953 49.053,109.75C48.82,109.547 48.526,109.446 48.171,109.446C47.907,109.446 47.699,109.578 47.547,109.841C47.395,110.105 47.319,110.404 47.319,110.738L46.073,110.51ZM49.372,112.365C49.037,112.274 48.698,112.228 48.353,112.228C48.161,112.228 47.968,112.251 47.775,112.297C47.583,112.342 47.411,112.416 47.259,112.517C47.106,112.618 46.982,112.748 46.886,112.905C46.79,113.062 46.742,113.252 46.742,113.475C46.742,113.82 46.861,114.065 47.099,114.212C47.337,114.359 47.603,114.433 47.897,114.433C48.221,114.433 48.518,114.367 48.787,114.235C49.055,114.103 49.25,113.992 49.372,113.901L49.372,112.365Z" style="fill-rule:nonzero;"/>
            <path d="M52.504,109.537L54.724,109.202L54.724,110.008C54.998,109.795 55.312,109.593 55.667,109.4C56.021,109.208 56.361,109.111 56.685,109.111C56.969,109.111 57.24,109.147 57.499,109.218C57.757,109.289 57.988,109.405 58.191,109.567C58.393,109.73 58.555,109.947 58.677,110.221C58.799,110.495 58.86,110.834 58.86,111.24L58.86,113.916C58.86,114.25 58.951,114.471 59.133,114.577C59.316,114.684 59.579,114.767 59.924,114.828L59.924,115.011C59.63,114.99 59.316,114.975 58.981,114.965C58.647,114.955 58.307,114.95 57.962,114.95C57.729,114.95 57.504,114.955 57.286,114.965C57.068,114.975 56.858,114.99 56.655,115.011L56.655,114.828C56.979,114.767 57.23,114.684 57.408,114.577C57.585,114.471 57.674,114.25 57.674,113.916L57.674,111.468C57.674,110.951 57.565,110.551 57.347,110.267C57.129,109.983 56.777,109.841 56.29,109.841C56.118,109.841 55.94,109.866 55.758,109.917C55.575,109.968 55.408,110.036 55.256,110.122C55.104,110.208 54.977,110.302 54.876,110.404C54.775,110.505 54.724,110.601 54.724,110.693L54.724,113.916C54.724,114.25 54.82,114.471 55.013,114.577C55.205,114.684 55.494,114.767 55.879,114.828L55.879,115.011C55.535,114.99 55.193,114.975 54.853,114.965C54.514,114.955 54.171,114.95 53.827,114.95C53.594,114.95 53.368,114.955 53.15,114.965C52.932,114.975 52.707,114.99 52.474,115.011L52.474,114.828C52.818,114.767 53.082,114.684 53.264,114.577C53.447,114.471 53.538,114.25 53.538,113.916L53.538,110.388C53.538,110.084 53.434,109.897 53.226,109.826C53.018,109.755 52.778,109.719 52.504,109.719L52.504,109.537Z" style="fill-rule:nonzero;"/>
            <path d="M62.037,111.757C62.037,112.284 62.106,112.72 62.243,113.064C62.379,113.409 62.552,113.683 62.759,113.885C62.967,114.088 63.19,114.23 63.428,114.311C63.667,114.392 63.887,114.433 64.09,114.433C64.516,114.433 64.901,114.364 65.245,114.228C65.59,114.091 65.909,113.875 66.203,113.581L66.462,113.825C66.046,114.271 65.62,114.61 65.185,114.843C64.749,115.076 64.227,115.193 63.619,115.193C63.183,115.193 62.792,115.107 62.448,114.935C62.103,114.762 61.809,114.534 61.566,114.25C61.323,113.967 61.138,113.642 61.011,113.277C60.884,112.912 60.821,112.537 60.821,112.152C60.821,111.767 60.884,111.392 61.011,111.027C61.138,110.662 61.323,110.338 61.566,110.054C61.809,109.77 62.103,109.542 62.448,109.37C62.792,109.197 63.183,109.111 63.619,109.111C64.419,109.111 65.063,109.329 65.55,109.765C66.036,110.201 66.335,110.865 66.447,111.757L62.037,111.757ZM65.002,111.301C64.972,111.027 64.931,110.781 64.881,110.563C64.83,110.345 64.749,110.163 64.637,110.016C64.526,109.869 64.379,109.757 64.196,109.681C64.014,109.605 63.781,109.567 63.497,109.567C63.284,109.567 63.089,109.621 62.912,109.727C62.734,109.833 62.582,109.97 62.455,110.138C62.329,110.305 62.232,110.492 62.167,110.7C62.101,110.908 62.068,111.108 62.068,111.301L65.002,111.301Z" style="fill-rule:nonzero;"/>
            <path d="M67.648,113.019L67.861,113.019C68.002,113.232 68.162,113.439 68.34,113.642C68.517,113.845 68.712,114.027 68.925,114.19C69.138,114.352 69.366,114.483 69.609,114.585C69.852,114.686 70.111,114.737 70.385,114.737C70.516,114.737 70.651,114.724 70.787,114.699C70.924,114.674 71.048,114.63 71.16,114.57C71.271,114.509 71.363,114.428 71.434,114.326C71.505,114.225 71.54,114.098 71.54,113.946C71.54,113.693 71.446,113.485 71.259,113.323C71.071,113.161 70.841,113.019 70.567,112.897C70.293,112.776 69.992,112.661 69.662,112.555C69.333,112.449 69.031,112.322 68.758,112.175C68.484,112.028 68.253,111.848 68.066,111.635C67.878,111.422 67.785,111.149 67.785,110.814C67.785,110.267 67.954,109.846 68.294,109.552C68.633,109.258 69.062,109.111 69.579,109.111C69.964,109.111 70.336,109.162 70.696,109.263C71.056,109.365 71.429,109.425 71.814,109.446L71.905,111.057L71.707,111.057C71.606,110.865 71.479,110.68 71.327,110.502C71.175,110.325 71.005,110.168 70.818,110.031C70.63,109.894 70.43,109.783 70.217,109.697C70.004,109.61 69.786,109.567 69.563,109.567C69.31,109.567 69.082,109.623 68.879,109.735C68.677,109.846 68.575,110.049 68.575,110.343C68.575,110.556 68.669,110.731 68.856,110.867C69.044,111.004 69.275,111.131 69.548,111.247C69.822,111.364 70.124,111.478 70.453,111.59C70.782,111.701 71.084,111.835 71.358,111.992C71.631,112.15 71.862,112.342 72.049,112.57C72.237,112.798 72.331,113.08 72.331,113.414C72.331,113.769 72.272,114.06 72.156,114.288C72.039,114.516 71.88,114.696 71.677,114.828C71.474,114.96 71.239,115.054 70.97,115.109C70.701,115.165 70.415,115.193 70.111,115.193C69.868,115.193 69.634,115.175 69.411,115.14C69.188,115.104 68.978,115.061 68.78,115.011C68.583,114.96 68.398,114.914 68.225,114.874C68.053,114.833 67.901,114.803 67.769,114.783L67.648,113.019Z" style="fill-rule:nonzero;"/>
            <path d="M74.703,111.757C74.703,112.284 74.771,112.72 74.908,113.064C75.045,113.409 75.217,113.683 75.425,113.885C75.633,114.088 75.856,114.23 76.094,114.311C76.332,114.392 76.552,114.433 76.755,114.433C77.181,114.433 77.566,114.364 77.911,114.228C78.255,114.091 78.575,113.875 78.869,113.581L79.127,113.825C78.712,114.271 78.286,114.61 77.85,114.843C77.414,115.076 76.892,115.193 76.284,115.193C75.848,115.193 75.458,115.107 75.113,114.935C74.768,114.762 74.475,114.534 74.231,114.25C73.988,113.967 73.803,113.642 73.676,113.277C73.55,112.912 73.486,112.537 73.486,112.152C73.486,111.767 73.55,111.392 73.676,111.027C73.803,110.662 73.988,110.338 74.231,110.054C74.475,109.77 74.768,109.542 75.113,109.37C75.458,109.197 75.848,109.111 76.284,109.111C77.085,109.111 77.728,109.329 78.215,109.765C78.701,110.201 79,110.865 79.112,111.757L74.703,111.757ZM77.667,111.301C77.637,111.027 77.597,110.781 77.546,110.563C77.495,110.345 77.414,110.163 77.303,110.016C77.191,109.869 77.044,109.757 76.862,109.681C76.679,109.605 76.446,109.567 76.162,109.567C75.949,109.567 75.754,109.621 75.577,109.727C75.399,109.833 75.247,109.97 75.121,110.138C74.994,110.305 74.898,110.492 74.832,110.7C74.766,110.908 74.733,111.108 74.733,111.301L77.667,111.301Z" style="fill-rule:nonzero;"/>
            <path d="M89.268,111.666C89.167,111.412 89.053,111.156 88.926,110.898C88.8,110.639 88.648,110.409 88.47,110.206C88.293,110.003 88.085,109.836 87.847,109.704C87.609,109.572 87.332,109.507 87.018,109.507C86.704,109.507 86.435,109.583 86.212,109.735C85.989,109.887 85.809,110.082 85.673,110.32C85.536,110.558 85.434,110.827 85.369,111.126C85.303,111.425 85.27,111.721 85.27,112.015C85.27,112.35 85.325,112.669 85.437,112.973C85.548,113.277 85.706,113.548 85.908,113.787C86.111,114.025 86.357,114.212 86.646,114.349C86.935,114.486 87.256,114.554 87.611,114.554C87.986,114.554 88.341,114.486 88.676,114.349C89.01,114.212 89.329,114.037 89.633,113.825L89.846,114.068C89.39,114.443 88.942,114.724 88.501,114.912C88.06,115.099 87.566,115.193 87.018,115.193C86.623,115.193 86.245,115.112 85.885,114.95C85.526,114.788 85.211,114.57 84.943,114.296C84.674,114.022 84.459,113.7 84.297,113.33C84.134,112.961 84.053,112.568 84.053,112.152C84.053,111.737 84.134,111.344 84.297,110.974C84.459,110.604 84.674,110.282 84.943,110.008C85.211,109.735 85.526,109.517 85.885,109.355C86.245,109.192 86.623,109.111 87.018,109.111C87.444,109.111 87.834,109.134 88.189,109.18C88.544,109.225 88.899,109.284 89.253,109.355L89.451,111.666L89.268,111.666Z" style="fill-rule:nonzero;"/>
            <path d="M90.561,114.828C90.906,114.767 91.169,114.684 91.352,114.577C91.534,114.471 91.625,114.25 91.625,113.916L91.625,110.388C91.625,110.084 91.521,109.897 91.313,109.826C91.106,109.755 90.865,109.719 90.591,109.719L90.591,109.537L92.811,109.202L92.811,110.069C92.933,109.988 93.072,109.882 93.229,109.75C93.386,109.618 93.554,109.489 93.731,109.362C93.908,109.235 94.088,109.126 94.271,109.035C94.453,108.944 94.631,108.898 94.803,108.898C95.198,108.898 95.495,109.007 95.692,109.225C95.89,109.443 95.999,109.745 96.019,110.13L94.803,110.769C94.823,110.698 94.843,110.624 94.864,110.548C94.884,110.472 94.894,110.373 94.894,110.252C94.894,110.11 94.843,109.975 94.742,109.849C94.641,109.722 94.504,109.659 94.332,109.659C94.19,109.659 94.048,109.694 93.906,109.765C93.764,109.836 93.627,109.925 93.495,110.031C93.364,110.138 93.239,110.252 93.123,110.373C93.006,110.495 92.902,110.601 92.811,110.693L92.811,113.916C92.811,114.25 92.907,114.471 93.1,114.577C93.293,114.684 93.581,114.767 93.967,114.828L93.967,115.011C93.622,114.99 93.28,114.975 92.94,114.965C92.601,114.955 92.259,114.95 91.914,114.95C91.681,114.95 91.455,114.955 91.237,114.965C91.02,114.975 90.794,114.99 90.561,115.011L90.561,114.828Z" style="fill-rule:nonzero;"/>
            <path d="M97.16,110.51C97.241,110.196 97.355,109.945 97.502,109.757C97.649,109.57 97.818,109.428 98.011,109.332C98.204,109.235 98.422,109.175 98.665,109.149C98.908,109.124 99.167,109.111 99.44,109.111C99.704,109.111 99.965,109.139 100.223,109.195C100.482,109.251 100.715,109.344 100.923,109.476C101.131,109.608 101.298,109.783 101.424,110.001C101.551,110.219 101.615,110.485 101.615,110.799L101.615,113.612C101.615,113.804 101.665,113.974 101.767,114.121C101.868,114.268 102.025,114.342 102.238,114.342C102.441,114.342 102.621,114.283 102.778,114.167C102.935,114.05 103.084,113.936 103.226,113.825L103.378,113.992C103.277,114.093 103.158,114.212 103.021,114.349C102.884,114.486 102.74,114.618 102.588,114.745C102.436,114.871 102.281,114.978 102.124,115.064C101.967,115.15 101.812,115.193 101.66,115.193C101.559,115.193 101.452,115.16 101.341,115.094C101.229,115.028 101.12,114.95 101.014,114.859C100.908,114.767 100.809,114.671 100.717,114.57C100.626,114.468 100.545,114.382 100.474,114.311C100.15,114.534 99.785,114.737 99.379,114.919C98.974,115.102 98.579,115.193 98.194,115.193C97.981,115.193 97.775,115.158 97.578,115.087C97.38,115.016 97.205,114.914 97.053,114.783C96.901,114.651 96.78,114.494 96.688,114.311C96.597,114.129 96.551,113.921 96.551,113.688C96.551,113.272 96.668,112.94 96.901,112.692C97.134,112.444 97.436,112.254 97.806,112.122C98.176,111.99 98.596,111.901 99.068,111.856C99.539,111.81 100.013,111.782 100.489,111.772L100.489,110.616C100.489,110.241 100.373,109.953 100.14,109.75C99.907,109.547 99.613,109.446 99.258,109.446C98.994,109.446 98.786,109.578 98.634,109.841C98.482,110.105 98.406,110.404 98.406,110.738L97.16,110.51ZM100.459,112.365C100.124,112.274 99.785,112.228 99.44,112.228C99.248,112.228 99.055,112.251 98.863,112.297C98.67,112.342 98.498,112.416 98.346,112.517C98.194,112.618 98.069,112.748 97.973,112.905C97.877,113.062 97.829,113.252 97.829,113.475C97.829,113.82 97.948,114.065 98.186,114.212C98.424,114.359 98.69,114.433 98.984,114.433C99.309,114.433 99.605,114.367 99.874,114.235C100.142,114.103 100.337,113.992 100.459,113.901L100.459,112.365Z" style="fill-rule:nonzero;"/>
            <path d="M103.485,114.828C103.748,114.818 103.953,114.777 104.1,114.706C104.247,114.636 104.359,114.534 104.435,114.402C104.511,114.271 104.557,114.114 104.572,113.931C104.587,113.749 104.595,113.541 104.595,113.308L104.595,109.887L103.85,109.887L103.941,109.431L104.595,109.431L104.595,107.804C104.595,107.459 104.643,107.074 104.739,106.648C104.835,106.222 104.99,105.822 105.203,105.447C105.416,105.072 105.694,104.758 106.039,104.504C106.384,104.251 106.804,104.124 107.301,104.124C107.788,104.124 108.201,104.251 108.54,104.504C108.88,104.758 109.05,105.097 109.05,105.523C109.05,105.766 109.009,105.934 108.928,106.025C108.847,106.116 108.69,106.162 108.457,106.162C108.305,106.162 108.198,106.116 108.137,106.025C108.076,105.934 108.046,105.726 108.046,105.401C108.046,105.33 108.031,105.239 108,105.128C107.97,105.016 107.917,104.907 107.841,104.801C107.765,104.694 107.663,104.606 107.537,104.535C107.41,104.464 107.255,104.428 107.073,104.428C106.809,104.428 106.597,104.504 106.434,104.656C106.272,104.808 106.14,104.993 106.039,105.211C105.938,105.429 105.869,105.66 105.834,105.903C105.798,106.146 105.781,106.354 105.781,106.526L105.781,109.431L107.712,109.431L107.712,109.887L105.781,109.887L105.781,113.308C105.781,113.541 105.793,113.749 105.819,113.931C105.844,114.114 105.912,114.271 106.024,114.402C106.135,114.534 106.305,114.636 106.533,114.706C106.761,114.777 107.083,114.818 107.499,114.828L107.499,115.011C107.144,114.99 106.794,114.975 106.45,114.965C106.105,114.955 105.755,114.95 105.4,114.95C105.076,114.95 104.757,114.955 104.443,114.965C104.128,114.975 103.809,114.99 103.485,115.011L103.485,114.828Z" style="fill-rule:nonzero;"/>
            <path d="M108.092,109.826L108.092,109.583C108.416,109.572 108.695,109.491 108.928,109.339C109.161,109.187 109.364,108.995 109.536,108.762C109.708,108.528 109.853,108.27 109.969,107.986C110.086,107.702 110.19,107.429 110.281,107.165L110.494,107.165L110.494,109.37L112.577,109.37L112.577,109.826L110.494,109.826L110.494,113.368C110.494,113.5 110.502,113.63 110.517,113.756C110.532,113.883 110.562,113.997 110.608,114.098C110.654,114.2 110.719,114.281 110.806,114.342C110.892,114.402 111.011,114.433 111.163,114.433C111.467,114.433 111.72,114.367 111.923,114.235C112.126,114.103 112.329,113.936 112.531,113.733L112.668,113.885C112.496,114.037 112.329,114.192 112.166,114.349C112.004,114.506 111.834,114.648 111.657,114.775C111.48,114.902 111.287,115.003 111.079,115.079C110.872,115.155 110.646,115.193 110.403,115.193C109.977,115.193 109.688,115.064 109.536,114.805C109.384,114.547 109.308,114.24 109.308,113.885L109.308,109.826L108.092,109.826Z" style="fill-rule:nonzero;"/>
            <path d="M117.199,113.019L117.412,113.019C117.554,113.232 117.714,113.439 117.891,113.642C118.068,113.845 118.263,114.027 118.476,114.19C118.689,114.352 118.917,114.483 119.161,114.585C119.404,114.686 119.662,114.737 119.936,114.737C120.068,114.737 120.202,114.724 120.339,114.699C120.476,114.674 120.6,114.63 120.711,114.57C120.823,114.509 120.914,114.428 120.985,114.326C121.056,114.225 121.091,114.098 121.091,113.946C121.091,113.693 120.998,113.485 120.81,113.323C120.623,113.161 120.392,113.019 120.118,112.897C119.845,112.776 119.543,112.661 119.214,112.555C118.884,112.449 118.583,112.322 118.309,112.175C118.035,112.028 117.805,111.848 117.617,111.635C117.43,111.422 117.336,111.149 117.336,110.814C117.336,110.267 117.506,109.846 117.845,109.552C118.185,109.258 118.613,109.111 119.13,109.111C119.515,109.111 119.888,109.162 120.248,109.263C120.607,109.365 120.98,109.425 121.365,109.446L121.456,111.057L121.259,111.057C121.157,110.865 121.031,110.68 120.879,110.502C120.727,110.325 120.557,110.168 120.369,110.031C120.182,109.894 119.982,109.783 119.769,109.697C119.556,109.61 119.338,109.567 119.115,109.567C118.861,109.567 118.633,109.623 118.431,109.735C118.228,109.846 118.127,110.049 118.127,110.343C118.127,110.556 118.22,110.731 118.408,110.867C118.595,111.004 118.826,111.131 119.1,111.247C119.373,111.364 119.675,111.478 120.004,111.59C120.334,111.701 120.635,111.835 120.909,111.992C121.183,112.15 121.413,112.342 121.601,112.57C121.788,112.798 121.882,113.08 121.882,113.414C121.882,113.769 121.824,114.06 121.707,114.288C121.591,114.516 121.431,114.696 121.228,114.828C121.026,114.96 120.79,115.054 120.521,115.109C120.253,115.165 119.966,115.193 119.662,115.193C119.419,115.193 119.186,115.175 118.963,115.14C118.74,115.104 118.53,115.061 118.332,115.011C118.134,114.96 117.949,114.914 117.777,114.874C117.605,114.833 117.453,114.803 117.321,114.783L117.199,113.019Z" style="fill-rule:nonzero;"/>
            <path d="M130.305,115.011C130.011,114.99 129.697,114.975 129.363,114.965C129.028,114.955 128.689,114.95 128.344,114.95C128.111,114.95 127.885,114.955 127.667,114.965C127.449,114.975 127.239,114.99 127.036,115.011L127.036,114.828C127.361,114.767 127.612,114.684 127.789,114.577C127.966,114.471 128.055,114.25 128.055,113.916L128.055,111.468C128.055,110.951 127.946,110.551 127.728,110.267C127.51,109.983 127.158,109.841 126.672,109.841C126.499,109.841 126.322,109.866 126.139,109.917C125.957,109.968 125.79,110.036 125.638,110.122C125.486,110.208 125.359,110.302 125.257,110.404C125.156,110.505 125.105,110.601 125.105,110.693L125.105,113.916C125.105,114.25 125.202,114.471 125.394,114.577C125.587,114.684 125.876,114.767 126.261,114.828L126.261,115.011C125.916,114.99 125.574,114.975 125.235,114.965C124.895,114.955 124.553,114.95 124.208,114.95C123.975,114.95 123.75,114.955 123.532,114.965C123.314,114.975 123.088,114.99 122.855,115.011L122.855,114.828C123.2,114.767 123.463,114.684 123.646,114.577C123.828,114.471 123.92,114.25 123.92,113.916L123.92,106.162C123.92,105.797 123.902,105.51 123.866,105.303C123.831,105.095 123.77,104.938 123.684,104.831C123.598,104.725 123.481,104.656 123.334,104.626C123.187,104.596 123.002,104.575 122.779,104.565L122.779,104.383L125.105,104.124L125.105,110.008C125.379,109.795 125.693,109.593 126.048,109.4C126.403,109.208 126.742,109.111 127.067,109.111C127.351,109.111 127.622,109.147 127.88,109.218C128.139,109.289 128.369,109.405 128.572,109.567C128.775,109.73 128.937,109.947 129.059,110.221C129.18,110.495 129.241,110.834 129.241,111.24L129.241,113.916C129.241,114.25 129.332,114.471 129.515,114.577C129.697,114.684 129.961,114.767 130.305,114.828L130.305,115.011Z" style="fill-rule:nonzero;"/>
            <path d="M134.471,109.111C134.958,109.111 135.401,109.185 135.802,109.332C136.202,109.479 136.547,109.684 136.836,109.947C137.125,110.211 137.348,110.53 137.505,110.905C137.662,111.28 137.74,111.696 137.74,112.152C137.74,112.608 137.662,113.024 137.505,113.399C137.348,113.774 137.125,114.093 136.836,114.357C136.547,114.62 136.202,114.826 135.802,114.973C135.401,115.12 134.958,115.193 134.471,115.193C133.985,115.193 133.541,115.12 133.141,114.973C132.741,114.826 132.396,114.62 132.107,114.357C131.818,114.093 131.595,113.774 131.438,113.399C131.281,113.024 131.202,112.608 131.202,112.152C131.202,111.696 131.281,111.28 131.438,110.905C131.595,110.53 131.818,110.211 132.107,109.947C132.396,109.684 132.741,109.479 133.141,109.332C133.541,109.185 133.985,109.111 134.471,109.111ZM134.198,109.567C133.914,109.567 133.668,109.638 133.46,109.78C133.253,109.922 133.08,110.107 132.943,110.335C132.807,110.563 132.705,110.822 132.639,111.111C132.573,111.4 132.54,111.686 132.54,111.97C132.54,112.294 132.584,112.618 132.67,112.943C132.756,113.267 132.89,113.564 133.073,113.832C133.255,114.101 133.483,114.319 133.757,114.486C134.03,114.653 134.36,114.737 134.745,114.737C135.029,114.737 135.275,114.666 135.483,114.524C135.69,114.382 135.863,114.197 135.999,113.969C136.136,113.741 136.238,113.485 136.304,113.201C136.369,112.917 136.402,112.629 136.402,112.335C136.402,112.02 136.357,111.699 136.266,111.369C136.174,111.04 136.037,110.741 135.855,110.472C135.673,110.203 135.444,109.985 135.171,109.818C134.897,109.651 134.573,109.567 134.198,109.567Z" style="fill-rule:nonzero;"/>
            <path d="M140.751,113.597C140.862,113.901 141.093,114.167 141.443,114.395C141.792,114.623 142.19,114.737 142.636,114.737C143.265,114.737 143.731,114.499 144.035,114.022C144.339,113.546 144.491,112.943 144.491,112.213C144.491,111.909 144.453,111.605 144.377,111.301C144.301,110.997 144.187,110.723 144.035,110.48C143.883,110.236 143.69,110.039 143.457,109.887C143.224,109.735 142.95,109.659 142.636,109.659C142.18,109.659 141.78,109.745 141.435,109.917C141.09,110.089 140.862,110.312 140.751,110.586L140.751,113.597ZM140.751,117.246C140.751,117.489 140.766,117.687 140.796,117.839C140.827,117.991 140.905,118.112 141.032,118.204C141.159,118.295 141.346,118.361 141.595,118.401C141.843,118.442 142.185,118.467 142.621,118.477L142.621,118.66C142.246,118.639 141.871,118.624 141.496,118.614C141.121,118.604 140.746,118.599 140.371,118.599C140.026,118.599 139.684,118.604 139.344,118.614C139.005,118.624 138.663,118.639 138.318,118.66L138.318,118.477C138.531,118.457 138.713,118.429 138.866,118.394C139.018,118.358 139.147,118.302 139.253,118.226C139.36,118.15 139.438,118.044 139.489,117.907C139.54,117.77 139.565,117.585 139.565,117.352L139.565,110.723C139.565,110.297 139.479,110.013 139.306,109.871C139.134,109.73 138.84,109.638 138.425,109.598L138.425,109.431L140.751,109.202L140.751,109.841C141.116,109.578 141.458,109.39 141.777,109.278C142.096,109.167 142.479,109.111 142.925,109.111C143.371,109.111 143.774,109.187 144.134,109.339C144.494,109.491 144.798,109.704 145.046,109.978C145.294,110.252 145.487,110.576 145.624,110.951C145.761,111.326 145.829,111.737 145.829,112.183C145.829,112.649 145.74,113.067 145.563,113.437C145.386,113.807 145.147,114.121 144.848,114.38C144.549,114.638 144.2,114.838 143.799,114.98C143.399,115.122 142.981,115.193 142.545,115.193C142.231,115.193 141.922,115.155 141.618,115.079C141.313,115.003 141.025,114.879 140.751,114.706L140.751,117.246Z" style="fill-rule:nonzero;"/>
        </g>
        <g transform="matrix(0.563897,0,0,0.563897,-101.783373,-80.004449)">
            <g transform="matrix(2.048073,0,0,2.048073,-185.081081,-156.923004)">
                <path d="M178.5,174.178L178.5,171.778C181.7,171.678 184.45,170.878 186.75,169.378C189.05,167.878 191.05,165.978 192.75,163.678C194.45,161.378 195.875,158.828 197.025,156.028C198.175,153.228 199.2,149.528 200.1,146.928L202.2,146.928L202.2,169.678L222.75,169.678L222.75,174.178L202.2,174.178L202.2,209.128C202.2,210.428 202.275,211.703 202.425,212.953C202.575,214.203 202.875,215.328 203.325,216.328C203.775,217.328 204.425,218.128 205.275,218.728C206.125,219.328 207.3,219.628 208.8,219.628C211.8,219.628 214.3,218.978 216.3,217.678C218.3,216.378 220.3,214.728 222.3,212.728L223.65,214.228C221.95,215.728 222.3,217.253 220.7,218.803C219.1,220.353 218.425,221.753 216.675,223.003C214.925,224.253 213.025,225.253 210.975,226.003C208.925,226.753 206.7,227.128 204.3,227.128C200.1,227.128 195.554,224.648 193.75,222.303C190.25,217.753 190.5,217.728 190.5,214.228L190.5,174.178L178.5,174.178Z"/>
            </g>
            <g transform="matrix(2.048073,0,0,2.048073,-183.033008,-156.923004)">
                <path d="M242.1,193.228C242.1,198.428 242.775,202.728 244.125,206.128C245.475,209.528 247.175,212.228 249.225,214.228C251.275,216.228 253.475,217.628 255.825,218.428C258.175,219.228 260.35,219.628 262.35,219.628C266.55,219.628 270.35,218.953 273.75,217.603C277.15,216.253 280.3,214.128 283.2,211.228L285.75,213.628C281.65,218.028 277.45,221.378 273.15,223.678C268.85,225.978 263.7,227.128 257.7,227.128C253.4,227.128 249.55,226.278 246.15,224.578C242.75,222.878 239.85,220.628 237.45,217.828C235.05,215.028 233.225,211.828 231.975,208.228C230.725,204.628 230.1,200.928 230.1,197.128C230.1,193.328 230.725,189.628 231.975,186.028C233.225,182.428 235.05,179.228 237.45,176.428C239.85,173.628 242.75,171.378 246.15,169.678C249.55,167.978 253.4,167.128 257.7,167.128C265.6,167.128 271.95,169.278 276.75,173.578C281.55,177.878 284.5,184.428 285.6,193.228L242.1,193.228ZM271.35,188.728C271.05,186.028 270.65,183.603 270.15,181.453C269.65,179.303 268.85,177.503 267.75,176.053C266.65,174.603 265.2,173.503 263.4,172.753C261.6,172.003 259.3,171.628 256.5,171.628C254.4,171.628 252.475,172.153 250.725,173.203C248.975,174.253 247.475,175.603 246.225,177.253C244.975,178.903 244.025,180.753 243.375,182.803C242.725,184.853 242.4,186.828 242.4,188.728L271.35,188.728Z"/>
            </g>
            <g transform="matrix(2.048073,0,0,2.048073,-180.984935,-156.923004)">
                <path d="M376.2,167.128C381,167.128 385.375,167.853 389.325,169.303C393.275,170.753 396.675,172.778 399.525,175.378C402.375,177.978 404.575,181.128 406.125,184.828C407.675,188.528 408.45,192.628 408.45,197.128C408.45,201.628 407.675,205.728 406.125,209.428C404.575,213.128 402.375,216.278 399.525,218.878C396.675,221.478 393.275,223.503 389.325,224.953C385.375,226.403 381,227.128 376.2,227.128C371.4,227.128 367.025,226.403 363.075,224.953C359.125,223.503 355.725,221.478 352.875,218.878C350.025,216.278 347.825,213.128 346.275,209.428C344.725,205.728 343.95,201.628 343.95,197.128C343.95,192.628 344.725,188.528 346.275,184.828C347.825,181.128 350.025,177.978 352.875,175.378C355.725,172.778 359.125,170.753 363.075,169.303C367.025,167.853 371.4,167.128 376.2,167.128ZM373.5,171.628C370.7,171.628 368.275,172.328 366.225,173.728C364.175,175.128 362.475,176.953 361.125,179.203C359.775,181.453 358.775,184.003 358.125,186.853C357.475,189.703 357.15,192.528 357.15,195.328C357.15,198.528 357.575,201.728 358.425,204.928C359.275,208.128 360.6,211.053 362.4,213.703C364.2,216.353 366.45,218.503 369.15,220.153C371.85,221.803 375.1,222.628 378.9,222.628C381.7,222.628 384.125,221.928 386.175,220.528C388.225,219.128 389.925,217.303 391.275,215.053C392.625,212.803 393.625,210.278 394.275,207.478C394.925,204.678 395.25,201.828 395.25,198.928C395.25,195.828 394.8,192.653 393.9,189.403C393,186.153 391.65,183.203 389.85,180.553C388.05,177.903 385.8,175.753 383.1,174.103C380.4,172.453 377.2,171.628 373.5,171.628Z"/>
            </g>
            <g transform="matrix(2.048073,0,0,2.048073,-178.936863,-156.923004)">
                <path d="M478.2,193.228C478.2,198.428 478.875,202.728 480.225,206.128C481.575,209.528 483.275,212.228 485.325,214.228C487.375,216.228 489.575,217.628 491.925,218.428C494.275,219.228 496.45,219.628 498.45,219.628C502.65,219.628 506.45,218.953 509.85,217.603C513.25,216.253 516.4,214.128 519.3,211.228L521.85,213.628C517.75,218.028 513.55,221.378 509.25,223.678C504.95,225.978 499.8,227.128 493.8,227.128C489.5,227.128 485.65,226.278 482.25,224.578C478.85,222.878 475.95,220.628 473.55,217.828C471.15,215.028 469.325,211.828 468.075,208.228C466.825,204.628 466.2,200.928 466.2,197.128C466.2,193.328 466.825,189.628 468.075,186.028C469.325,182.428 471.15,179.228 473.55,176.428C475.95,173.628 478.85,171.378 482.25,169.678C485.65,167.978 489.5,167.128 493.8,167.128C501.7,167.128 508.05,169.278 512.85,173.578C517.65,177.878 520.6,184.428 521.7,193.228L478.2,193.228ZM507.45,188.728C507.15,186.028 506.75,183.603 506.25,181.453C505.75,179.303 504.95,177.503 503.85,176.053C502.75,174.603 501.3,173.503 499.5,172.753C497.7,172.003 495.4,171.628 492.6,171.628C490.5,171.628 488.575,172.153 486.825,173.203C485.075,174.253 483.575,175.603 482.325,177.253C481.075,178.903 480.125,180.753 479.475,182.803C478.825,184.853 478.5,186.828 478.5,188.728L507.45,188.728Z"/>
            </g>
            <g transform="matrix(2.029081,0,0,2.029081,-175.432663,-152.768394)">
                <path d="M292.35,174.178L292.35,171.778C295.55,171.678 298.3,170.878 300.6,169.378C302.9,167.878 304.9,165.978 306.6,163.678C308.3,161.378 309.725,158.828 310.875,156.028C312.025,153.228 313.05,148.686 313.95,146.086L316.05,146.086L316.05,169.678L336.6,169.678L336.6,174.178L316.05,174.178L316.05,209.128C316.05,210.428 316.125,211.703 316.275,212.953C316.425,214.203 316.725,215.75 317.175,216.75C317.625,217.75 318.697,218.128 319.547,218.728C320.397,219.328 321.572,219.628 323.072,219.628C326.072,219.628 328.15,218.978 330.15,217.678C332.15,216.378 334.15,214.728 336.15,212.728L337.5,214.228C335.8,215.728 335.081,217.253 333.481,218.803C331.881,220.353 331.558,221.288 329.808,222.538C328.058,223.788 326.623,225.253 324.573,226.003C322.523,226.753 320.703,227.443 317.855,227.128C313.655,226.663 311.779,225.853 309.348,223.768C307.103,221.842 304.815,219.589 304.35,214.228L304.35,174.178L292.35,174.178Z"/>
            </g>
            <g transform="matrix(2.029081,0,0,2.029081,75.801714,-152.768394)">
                <path d="M292.35,174.178L292.35,171.778C295.55,171.678 298.3,170.878 300.6,169.378C302.9,167.878 304.9,165.978 306.6,163.678C308.3,161.378 309.725,158.828 310.875,156.028C312.025,153.228 313.05,148.686 313.95,146.086L316.05,146.086L316.05,169.678L336.6,169.678L336.6,174.178L316.05,174.178L316.05,209.128C316.05,210.428 316.125,211.703 316.275,212.953C316.425,214.203 316.725,215.75 317.175,216.75C317.625,217.75 318.697,218.128 319.547,218.728C320.397,219.328 321.572,219.628 323.072,219.628C326.072,219.628 328.15,218.978 330.15,217.678C332.15,216.378 334.15,214.728 336.15,212.728L337.5,214.228C335.8,215.728 335.081,217.253 333.481,218.803C331.881,220.353 331.558,221.288 329.808,222.538C328.058,223.788 326.623,225.253 324.573,226.003C322.523,226.753 320.703,227.443 317.855,227.128C313.655,226.663 311.779,225.853 309.348,223.768C307.103,221.842 304.815,219.589 304.35,214.228L304.35,174.178L292.35,174.178Z"/>
            </g>
        </g>
    </g>
</svg>
